<svg width="360" height="42" viewBox="0 0 360 42" fill="none" xmlns="http://www.w3.org/2000/svg">
<path fill-rule="evenodd" clip-rule="evenodd" d="M246.709 14.6639C246.976 14.3977 246.976 13.966 246.709 13.6997C246.443 13.4334 246.011 13.4334 245.745 13.6997L243.7 15.7452C243.433 16.0114 243.433 16.4431 243.7 16.7094C243.966 16.9757 244.398 16.9757 244.664 16.7094L246.709 14.6639ZM256.255 13.6997C255.989 13.4334 255.557 13.4334 255.291 13.6997C255.024 13.966 255.024 14.3977 255.291 14.6639L257.336 16.7094C257.602 16.9757 258.034 16.9757 258.3 16.7094C258.567 16.4431 258.567 16.0114 258.3 15.7452L256.255 13.6997ZM251 16.2273C247.988 16.2273 245.545 18.6694 245.545 21.6819C245.545 24.6943 247.988 27.1364 251 27.1364C254.012 27.1364 256.455 24.6943 256.455 21.6819C256.455 18.6694 254.012 16.2273 251 16.2273ZM244.182 21.6819C244.182 17.9163 247.234 14.8637 251 14.8637C254.766 14.8637 257.818 17.9163 257.818 21.6819C257.818 25.4474 254.766 28.5 251 28.5C247.234 28.5 244.182 25.4474 244.182 21.6819ZM251 17.5909C251.377 17.5909 251.682 17.8962 251.682 18.2727V21.3171L253.424 22.4781C253.737 22.687 253.822 23.1103 253.613 23.4236C253.404 23.737 252.981 23.8217 252.667 23.6128L250.925 22.4517C250.739 22.3271 250.585 22.1582 250.479 21.9603C250.374 21.7624 250.318 21.5415 250.318 21.3171V18.2727C250.318 17.8962 250.623 17.5909 251 17.5909Z" fill="#222227"/>
<path fill-rule="evenodd" clip-rule="evenodd" d="M319.9 16.0001C319.9 15.503 319.497 15.1001 319 15.1001C318.503 15.1001 318.1 15.503 318.1 16.0001V26.0001C318.1 26.4972 318.503 26.9001 319 26.9001C319.497 26.9001 319.9 26.4972 319.9 26.0001V16.0001ZM313.2 21.2999C313.2 20.8028 312.797 20.3999 312.3 20.3999C311.803 20.3999 311.4 20.8028 311.4 21.2999V25.9999C311.4 26.497 311.803 26.8999 312.3 26.8999C312.797 26.8999 313.2 26.497 313.2 25.9999V21.2999ZM309 23.1001C309.497 23.1001 309.9 23.503 309.9 24.0001V26.0001C309.9 26.4972 309.497 26.9001 309 26.9001C308.503 26.9001 308.1 26.4972 308.1 26.0001V24.0001C308.1 23.503 308.503 23.1001 309 23.1001ZM316.6 18.7C316.6 18.203 316.197 17.8 315.7 17.8C315.203 17.8 314.8 18.203 314.8 18.7V26C314.8 26.4971 315.203 26.9 315.7 26.9C316.197 26.9 316.6 26.4971 316.6 26V18.7Z" fill="#222227"/>
<path fill-rule="evenodd" clip-rule="evenodd" d="M289.474 17.2325C290.562 16.7804 291.729 16.5484 292.908 16.55L292.909 16.55C295.388 16.55 297.63 17.5563 299.251 19.1847C299.563 19.4978 300.069 19.4988 300.382 19.1871C300.696 18.8753 300.697 18.3688 300.385 18.0557C298.475 16.1382 295.831 14.9501 292.909 14.95L292.91 14.95L292.909 15.75V14.95L292.909 14.95C291.52 14.9482 290.144 15.2218 288.86 15.7549C287.577 16.2881 286.412 17.0704 285.432 18.0564C285.121 18.3699 285.123 18.8764 285.436 19.1878C285.75 19.4992 286.256 19.4975 286.568 19.184C287.398 18.3479 288.386 17.6846 289.474 17.2325ZM290.572 20.0262C291.31 19.711 292.105 19.549 292.908 19.55H292.91C293.713 19.549 294.507 19.711 295.246 20.0262C295.984 20.3414 296.651 20.8033 297.205 21.3838C297.511 21.7033 298.017 21.7149 298.337 21.4097C298.656 21.1045 298.668 20.5981 298.362 20.2786C297.658 19.5415 296.812 18.955 295.874 18.5547C294.937 18.1546 293.928 17.9488 292.909 17.95L292.91 17.95L292.909 18.75L292.908 17.95L292.909 17.95C291.89 17.9488 290.881 18.1546 289.944 18.5547C289.006 18.955 288.16 19.5415 287.455 20.2786C287.15 20.5981 287.162 21.1045 287.481 21.4097C287.801 21.7149 288.307 21.7033 288.612 21.3838C289.167 20.8033 289.834 20.3414 290.572 20.0262ZM291.691 22.8122C292.073 22.6389 292.488 22.5495 292.908 22.55L292.909 22.55C293.793 22.55 294.586 22.9383 295.128 23.5556C295.419 23.8877 295.924 23.9207 296.257 23.6293C296.589 23.3379 296.622 22.8325 296.33 22.5003C295.498 21.5518 294.273 20.9501 292.909 20.95L292.91 20.95L292.909 21.75V20.95H292.909C292.261 20.9493 291.621 21.0874 291.03 21.3549C290.44 21.6225 289.914 22.0133 289.487 22.5013C289.196 22.8338 289.23 23.3392 289.562 23.6301C289.895 23.921 290.4 23.8872 290.691 23.5547C290.968 23.2387 291.308 22.9855 291.691 22.8122ZM294 25.2C294 25.7522 293.552 26.2 293 26.2C292.448 26.2 292 25.7522 292 25.2C292 24.6477 292.448 24.2 293 24.2C293.552 24.2 294 24.6477 294 25.2Z" fill="#222227"/>
<path fill-rule="evenodd" clip-rule="evenodd" d="M271.699 14.0694C271.927 13.958 272.2 13.9821 272.404 14.1315L276.731 17.3027C276.903 17.4288 277.003 17.6277 277 17.8378C276.997 18.048 276.891 18.2441 276.716 18.3656L272.91 21L276.716 23.6344C276.891 23.7559 276.997 23.952 277 24.1622C277.003 24.3723 276.903 24.5712 276.731 24.6973L272.404 27.8685C272.2 28.0179 271.927 28.042 271.699 27.9306C271.471 27.8191 271.327 27.5914 271.327 27.3423V22.0957L268.062 24.3555C267.759 24.5655 267.339 24.4954 267.124 24.199C266.909 23.9025 266.981 23.492 267.284 23.2821L270.581 21L267.284 18.7179C266.981 18.508 266.909 18.0975 267.124 17.801C267.339 17.5046 267.759 17.4345 268.062 17.6445L271.327 19.9043V14.6577C271.327 14.4086 271.471 14.1809 271.699 14.0694ZM272.673 22.4481L275.184 24.1863L272.673 26.0268V22.4481ZM272.673 19.5519V15.9732L275.184 17.8137L272.673 19.5519Z" fill="#222227"/>
<path fill-rule="evenodd" clip-rule="evenodd" d="M328.159 16.409C328.581 15.9871 329.153 15.75 329.75 15.75H338.75C339.347 15.75 339.919 15.9871 340.341 16.409C340.763 16.831 341 17.4033 341 18V18.1287C341.313 18.2395 341.601 18.4195 341.841 18.659C342.263 19.081 342.5 19.6533 342.5 20.25V21.75C342.5 22.3467 342.263 22.919 341.841 23.341C341.601 23.5805 341.313 23.7605 341 23.8713V24C341 24.5967 340.763 25.169 340.341 25.591C339.919 26.0129 339.347 26.25 338.75 26.25H329.75C329.153 26.25 328.581 26.0129 328.159 25.591C327.737 25.169 327.5 24.5967 327.5 24V18C327.5 17.4033 327.737 16.831 328.159 16.409ZM329.75 17.25C329.551 17.25 329.36 17.329 329.22 17.4697C329.079 17.6103 329 17.8011 329 18V24C329 24.1989 329.079 24.3897 329.22 24.5303C329.36 24.671 329.551 24.75 329.75 24.75H338.75C338.949 24.75 339.14 24.671 339.28 24.5303C339.421 24.3897 339.5 24.1989 339.5 24V23.25C339.5 22.8358 339.836 22.5 340.25 22.5C340.449 22.5 340.64 22.421 340.78 22.2803C340.921 22.1397 341 21.9489 341 21.75V20.25C341 20.0511 340.921 19.8603 340.78 19.7197C340.64 19.579 340.449 19.5 340.25 19.5C339.836 19.5 339.5 19.1642 339.5 18.75V18C339.5 17.8011 339.421 17.6103 339.28 17.4697C339.14 17.329 338.949 17.25 338.75 17.25H329.75ZM331.25 18.75C331.664 18.75 332 19.0858 332 19.5V22.5C332 22.9142 331.664 23.25 331.25 23.25C330.836 23.25 330.5 22.9142 330.5 22.5V19.5C330.5 19.0858 330.836 18.75 331.25 18.75ZM334.25 18.75C334.664 18.75 335 19.0858 335 19.5V22.5C335 22.9142 334.664 23.25 334.25 23.25C333.836 23.25 333.5 22.9142 333.5 22.5V19.5C333.5 19.0858 333.836 18.75 334.25 18.75ZM337.25 18.75C337.664 18.75 338 19.0858 338 19.5V22.5C338 22.9142 337.664 23.25 337.25 23.25C336.836 23.25 336.5 22.9142 336.5 22.5V19.5C336.5 19.0858 336.836 18.75 337.25 18.75Z" fill="#222227"/>
</svg>
