<svg width="823" height="618" viewBox="0 0 823 618" fill="none" xmlns="http://www.w3.org/2000/svg">
<path d="M119.94 345.598C129.728 347.194 141.355 346.153 146.735 355.073C160.687 362.883 177.833 363.993 186.822 377.772C204.385 390.406 220.802 400.298 240.828 411.647C250.061 408.489 256.03 418.797 263.354 421.713C280.5 422.823 298.756 430.077 313.368 435.874C334.158 438.442 356.129 443.752 374.975 452.36C379.314 448.403 384.798 450.59 389.691 451.388C403.228 447.674 417.18 455.484 431.307 453.124C465.008 450.59 496.905 447.362 529.426 442.086C541.713 439.032 555.18 438.685 566.946 430.876C574.304 430.39 582.946 425.878 592.075 429.487C597.003 426.919 602.591 422.303 608.075 424.489C609.915 425.218 609.255 427.231 612.309 427.301C613.732 413.105 628.414 415.535 637.646 412.376C643.13 414.563 650.384 420.845 654.792 413.487C656.076 409.461 658.541 408.177 655.521 404.706L651.877 403.248C655 399.951 663.677 392.037 669.751 395.578C671.522 399.673 672.702 402.415 677.005 401.86C680.129 398.562 686.862 396.688 691.132 399.5C673.153 413.938 652.293 418.138 634.904 433.93C629.316 438.511 625.221 425.565 620.258 431.535C618.835 445.731 605.958 447.432 597.315 451.944C591.797 453.158 583.745 459.024 579.545 452.846C575.692 464.924 563.996 469.367 554.763 472.525C549.974 464.959 542.581 468.812 538.242 472.768C527.622 486.721 512.489 476.17 500.723 483.979C491.49 487.138 479.828 488.179 472.401 495.433L471.151 496.092C479.655 501.715 488.263 497.203 497.495 494.079C524.533 486.652 552.716 485.333 579.233 473.15C603.216 465.653 629.039 458.85 653.091 447.952C668.537 438.199 686.377 433.895 701.232 422.789C711.644 422.372 720.321 414.493 730.109 416.09C737.502 412.203 742.465 409.634 749.198 407.795C750.968 411.89 749.094 414.563 745.38 416.507C739.792 421.088 730.629 420.88 726.812 429.557C718.169 434.069 708.312 439.24 704.46 451.319C702.62 450.59 701.405 451.249 700.156 451.874C700.746 453.228 701.336 454.616 701.336 454.616C713.484 461.697 719.349 436.811 728.963 448.542C736.356 444.655 744.409 438.789 750.031 430.806C754.335 430.251 756.799 428.967 760.444 430.39C776.583 415.222 798.692 410.398 816.671 395.959C818.51 396.688 820.975 395.404 822.155 398.146C822.745 399.5 820.871 402.172 819.621 402.832C791.195 421.053 771.238 444.933 743.471 461.141C740.209 474.608 726.95 461.384 723.688 474.851C721.189 479.537 713.171 482.035 718.62 487.589C719.8 490.331 717.926 493.003 716.677 493.628C703.835 491.927 703.557 512.232 690.125 509.212C680.754 522.505 662.914 526.809 649.308 537.291C627.06 552.285 601.168 562.454 576.491 575.366C564.794 579.808 551.154 590.29 538.346 588.589C530.849 599.245 518.806 585.396 512.524 595.392C506.831 606.742 495.239 604.416 485.486 602.82C480.002 600.633 473.338 595.739 468.34 601.709C466.431 607.748 460.878 608.963 456.609 609.518C449.841 611.393 443.94 597.683 435.819 606.95C435.68 617.085 425.267 617.501 417.909 617.987C406.421 608.894 394.655 616.703 382.993 617.779C368.936 616.738 356.684 616.425 342.662 612.017C324.753 623.055 308.44 606.395 291.849 610.039C276.022 604.902 260.647 607.887 245.444 600.737C235.587 605.909 226.598 592.13 216.706 597.301C200.914 588.763 181.269 592.338 168.566 580.502C138.648 574.324 111.957 558.046 84.5376 547.217C81.032 535.625 65.6216 541.976 62.1161 530.384C59.0965 526.913 54.8621 524.102 51.2178 522.644C49.3088 528.683 46.3239 521.846 43.2696 521.776C43.3043 518.375 36.5709 520.249 38.4799 514.21C36.1197 508.726 31.2259 507.928 28.2063 504.457C27.6509 499.702 20.9176 501.576 23.4165 496.891C15.5031 492.621 15.0866 481.098 8.42263 476.205C5.50715 465.966 -4.10701 454.234 2.79991 442.225C2.34871 430.702 -4.21113 419.04 4.4659 411.127C13.8024 401.2 27.3039 397.486 36.6403 387.595C43.4084 385.72 51.3566 386.623 54.515 379.924C55.9034 369.13 60.3807 355.038 72.0773 350.596C72.1121 347.194 75.8258 345.285 78.8801 345.355C92.3469 345.008 105.918 337.927 119.905 345.737L119.94 345.598ZM656.285 476.482C655.035 477.142 653.161 479.779 653.751 481.168C654.341 482.521 656.805 481.237 657.395 482.626C661.699 482.07 666.628 479.467 667.912 475.441C664.962 468.603 660.554 475.927 656.25 476.482H656.285Z" fill="white"/>
<path d="M383.064 0.460678C270.818 -7.03628 173.739 77.8598 166.207 190.106C163.674 227.938 171.657 264.069 187.622 295.619C187.831 296.07 188.108 296.486 188.351 296.938C189.913 300.165 191.649 302.664 194.113 306.135C198.972 317.381 203.553 320.192 206.434 326.196C208.586 328.175 213.966 337.997 221.81 341.711C223.337 344.21 225.905 346.084 230.903 351.082C235.311 354.796 237.151 354.588 238.157 357.573C239.129 358.544 242.635 362.293 243.676 362.154C245.654 363.056 247.945 364.549 249.125 365.313C250.826 363.959 251.208 367.464 253.325 366.562C253.464 366.354 252.665 363.889 252.596 363.542C251.728 362.814 251.381 361.182 249.889 361.668C246.557 358.718 245.897 358.544 243.19 354.969C240.552 351.707 238.192 351.152 240.309 346.952C242.982 343.446 243.711 344.141 247.702 344.245C250.583 344.314 255.338 346.813 260.024 349.867C261.065 351.29 265.577 354.9 267.104 354.414C267.382 355.247 268.18 352.818 268.77 352.956L267.139 350.735C262.28 345.737 257.906 344.488 259.919 336.435C261.967 332.93 260.475 333.659 262.8 331.403C269.881 328.73 277.898 329.598 283.104 332.305C284.909 333.034 287.061 333.798 288.831 334.874C289.734 335.255 291.33 334.735 292.233 335.116C292.823 335.776 294.037 336.158 294.628 336.505C296.745 337.581 299.209 337.754 300.944 339.42C303.86 342.093 307.539 343.273 310.107 346.57C310.697 347.23 311.357 346.64 311.947 346.987C313.405 348.34 315.244 348.757 316.39 350.388C317.57 351.082 319.479 350.909 320.659 351.603C320.936 351.95 320.902 352.54 321.526 352.609C324.268 353.408 326.733 353.581 329.127 354.969C330.307 355.664 331.453 357.295 333.292 357.746C333.292 358.059 333.535 358.683 333.848 358.718C337.839 359.62 340.789 361.668 344.434 363.161C345.336 363.542 346.516 364.549 347.696 365.243C351.341 366.736 355.401 366.076 359.115 366.631C360.677 366.736 362.829 366.874 363.141 368.367C366.022 370.206 369.146 369.79 371.575 370.866C372.165 371.525 373.033 372.219 373.658 372.254C378.517 373.816 383.307 372.254 387.819 374.441C390.838 375.586 394.865 376.141 398.37 374.823C399.967 374.302 402.119 374.753 403.646 374.857C412.01 375.413 420.583 377.217 429.122 375.308C428.844 374.684 429.816 374.406 429.538 373.781C431.412 373.608 432.939 374.024 434.848 373.504C436.098 373.295 437.729 372.462 439.013 371.907C440.332 370.762 453.383 371.907 453.209 370.033C455.083 371.178 461.47 365.868 463.726 366.354C468.793 362.709 486.39 356.358 487.396 355.247C500.551 345.98 528.838 326.544 544.491 299.679C557.785 281.597 571.043 254.559 572.813 217.282C580.206 105.071 495.31 7.99234 383.064 0.460678Z" fill="white"/>
</svg>
