<svg width="64" height="64" viewBox="0 0 64 64" fill="none" xmlns="http://www.w3.org/2000/svg">
  <rect width="64" height="64" rx="12" fill="#0A0A0A"/>
  <g transform="translate(3.25, 19) scale(0.21)">
    <path d="M97.7746 121.437H76.6997L25.1713 46.8931H24.255V121.383H0V4.15039H21.3983L72.4955 78.5863H73.5735V4.15039H97.7746V121.437Z" fill="white"/>
    <path d="M140.355 43.7669C128.713 43.7669 119.227 34.2805 119.227 22.6381C119.227 10.9957 128.713 1.50928 140.355 1.50928C151.998 1.50928 161.484 10.9957 161.484 22.6381C161.484 34.2805 151.998 43.7669 140.355 43.7669ZM140.355 7.11488C131.785 7.11488 124.778 14.1219 124.778 22.692C124.778 31.2621 131.785 38.2691 140.355 38.2691C148.925 38.2691 155.932 31.2621 155.932 22.692C155.932 14.1219 148.925 7.11488 140.355 7.11488Z" fill="white"/>
    <path d="M267.344 62.6857L233.01 123.215L219.266 115.562L240.179 79.0713C237.106 79.6103 234.519 79.8798 232.525 79.8798C224.548 79.8798 217.487 78.155 211.396 74.7593C205.252 71.3097 200.454 66.6204 196.951 60.5836C193.447 54.5468 191.723 47.6476 191.723 39.9399C191.723 32.2322 193.447 25.333 196.951 19.2962C200.454 13.2594 205.252 8.5162 211.45 5.1205C217.649 1.6709 224.709 0 232.687 0C240.664 0 247.725 1.7248 253.923 5.1205C260.122 8.5701 264.973 13.2594 268.53 19.2962C272.088 25.333 273.866 32.2322 273.866 39.9399C273.866 47.6476 271.71 54.9241 267.398 62.6857H267.344ZM214.522 21.1288C209.833 26.0337 207.461 32.34 207.461 39.9399C207.461 44.8987 208.539 49.4263 210.695 53.4688C212.851 57.5113 215.87 60.6375 219.805 62.8474C223.739 65.0573 228.105 66.1892 233.01 66.1892C237.915 66.1892 242.065 65.0573 245.892 62.8474C249.719 60.6375 252.684 57.5113 254.84 53.4688C256.996 49.4263 258.074 44.9526 258.074 39.9399C258.074 34.9272 256.996 30.3457 254.84 26.411C252.684 22.4763 249.719 19.404 245.892 17.1402C242.065 14.8764 237.807 13.7445 233.01 13.7445C225.356 13.7445 219.212 16.2239 214.522 21.1288Z" fill="white"/>
  </g>
</svg>
