<svg width="63" height="63" viewBox="0 0 63 63" fill="none" xmlns="http://www.w3.org/2000/svg">
<rect x="0.320848" y="0.320848" width="62.2446" height="62.2446" rx="15.7216" fill="url(#paint0_linear_2138_2092)" stroke="#26252A" stroke-width="0.641697"/>
<mask id="mask0_2138_2092" style="mask-type:alpha" maskUnits="userSpaceOnUse" x="14" y="14" width="35" height="35">
<path d="M31.4419 14.7598C31.7916 14.7598 32.0965 14.9989 32.1819 15.3382C32.4427 16.3762 32.7864 17.3916 33.2097 18.3746C34.3163 20.9455 35.8347 23.1957 37.7624 25.1234C39.6912 27.0516 41.9408 28.57 44.5112 29.6766C45.4945 30.0998 46.51 30.4435 47.5481 30.7045C47.8875 30.7898 48.126 31.0942 48.126 31.4439C48.126 31.7935 47.8875 32.0985 47.5476 32.1838C46.5096 32.4447 45.4942 32.7884 44.5112 33.2117C41.9403 34.3182 39.6907 35.8367 37.7624 37.7644C35.8347 39.6931 34.3163 41.9427 33.2097 44.5132C32.7864 45.4964 32.4425 46.5119 32.1813 47.55C32.14 47.7149 32.0448 47.8613 31.9109 47.966C31.777 48.0707 31.6119 48.1277 31.4419 48.128C31.0923 48.128 30.7879 47.8894 30.7025 47.5495C30.4415 46.5115 30.0976 45.4962 29.6741 44.5132C28.5681 41.9422 27.0502 39.6926 25.1214 37.7644C23.1932 35.8367 20.9436 34.3182 18.3726 33.2117C17.3896 32.7884 16.3742 32.4445 15.3363 32.1833C15.1714 32.1421 15.0249 32.047 14.9201 31.9132C14.8154 31.7794 14.7582 31.6144 14.7578 31.4444C14.7578 31.0947 14.9969 30.7903 15.3363 30.705C16.3743 30.444 17.3896 30.1001 18.3726 29.6766C20.9436 28.5706 23.1937 27.0521 25.1214 25.1239C27.0497 23.1962 28.5681 20.9461 29.6746 18.3751C30.0978 17.392 30.4415 16.3767 30.7025 15.3388C30.7436 15.1737 30.8387 15.027 30.9727 14.9221C31.1066 14.8173 31.2718 14.7601 31.4419 14.7598Z" fill="black"/>
<path d="M31.4419 14.7598C31.7916 14.7598 32.0965 14.9989 32.1819 15.3382C32.4427 16.3762 32.7864 17.3916 33.2097 18.3746C34.3163 20.9455 35.8347 23.1957 37.7624 25.1234C39.6912 27.0516 41.9408 28.57 44.5112 29.6766C45.4945 30.0998 46.51 30.4435 47.5481 30.7045C47.8875 30.7898 48.126 31.0942 48.126 31.4439C48.126 31.7935 47.8875 32.0985 47.5476 32.1838C46.5096 32.4447 45.4942 32.7884 44.5112 33.2117C41.9403 34.3182 39.6907 35.8367 37.7624 37.7644C35.8347 39.6931 34.3163 41.9427 33.2097 44.5132C32.7864 45.4964 32.4425 46.5119 32.1813 47.55C32.14 47.7149 32.0448 47.8613 31.9109 47.966C31.777 48.0707 31.6119 48.1277 31.4419 48.128C31.0923 48.128 30.7879 47.8894 30.7025 47.5495C30.4415 46.5115 30.0976 45.4962 29.6741 44.5132C28.5681 41.9422 27.0502 39.6926 25.1214 37.7644C23.1932 35.8367 20.9436 34.3182 18.3726 33.2117C17.3896 32.7884 16.3742 32.4445 15.3363 32.1833C15.1714 32.1421 15.0249 32.047 14.9201 31.9132C14.8154 31.7794 14.7582 31.6144 14.7578 31.4444C14.7578 31.0947 14.9969 30.7903 15.3363 30.705C16.3743 30.444 17.3896 30.1001 18.3726 29.6766C20.9436 28.5706 23.1937 27.0521 25.1214 25.1239C27.0497 23.1962 28.5681 20.9461 29.6746 18.3751C30.0978 17.392 30.4415 16.3767 30.7025 15.3388C30.7436 15.1737 30.8387 15.027 30.9727 14.9221C31.1066 14.8173 31.2718 14.7601 31.4419 14.7598Z" fill="url(#paint1_linear_2138_2092)"/>
</mask>
<g mask="url(#mask0_2138_2092)">
<g filter="url(#filter0_f_2138_2092)">
<path d="M11.745 40.8475C15.6005 42.2169 20.0318 39.6495 21.6428 35.1132C23.2537 30.5775 21.434 25.7903 17.5786 24.421C13.7231 23.0517 9.29179 25.6191 7.6803 30.1548C6.06984 34.6911 7.88957 39.4782 11.745 40.8475Z" fill="#FFE432"/>
</g>
<g filter="url(#filter1_f_2138_2092)">
<path d="M28.8647 25.8903C34.161 25.8903 38.455 21.5017 38.455 16.0887C38.455 10.6753 34.1615 6.28711 28.8647 6.28711C23.568 6.28711 19.2734 10.6758 19.2734 16.0887C19.2734 21.5017 23.5675 25.8903 28.8647 25.8903Z" fill="#FC413D"/>
</g>
<g filter="url(#filter2_f_2138_2092)">
<path d="M25.1346 57.2351C30.6637 56.9652 34.8621 50.9393 34.5119 43.7766C34.1623 36.6138 29.3957 31.0261 23.8665 31.2965C18.3374 31.567 14.139 37.5923 14.4892 44.7551C14.8393 51.9178 19.6054 57.5056 25.1346 57.2351Z" fill="#00B95C"/>
</g>
<g filter="url(#filter3_f_2138_2092)">
<path d="M25.1346 57.2351C30.6637 56.9652 34.8621 50.9393 34.5119 43.7766C34.1623 36.6138 29.3957 31.0261 23.8665 31.2965C18.3374 31.567 14.139 37.5923 14.4892 44.7551C14.8393 51.9178 19.6054 57.5056 25.1346 57.2351Z" fill="#00B95C"/>
</g>
<g filter="url(#filter4_f_2138_2092)">
<path d="M30.6744 52.9045C35.3094 50.0842 36.5501 43.6613 33.4454 38.5585C30.3407 33.4551 24.066 31.6045 19.4305 34.4243C14.795 37.2452 13.5543 43.668 16.659 48.7714C19.7647 53.8743 26.039 55.7249 30.6744 52.9045Z" fill="#00B95C"/>
</g>
<g filter="url(#filter5_f_2138_2092)">
<path d="M49.41 36.8673C54.6198 36.8673 58.8434 32.8 58.8434 27.7835C58.8434 22.7665 54.6198 18.6992 49.41 18.6992C44.2002 18.6992 39.9766 22.7665 39.9766 27.7835C39.9766 32.8005 44.2002 36.8673 49.41 36.8673Z" fill="#3186FF"/>
</g>
<g filter="url(#filter6_f_2138_2092)">
<path d="M8.03927 35.8148C12.8367 39.4625 19.8447 38.3184 23.6924 33.2582C27.5402 28.1985 26.7709 21.1391 21.9735 17.4914C17.176 13.8432 10.1686 14.9873 6.32031 20.0475C2.47259 25.1072 3.24234 32.1671 8.03927 35.8148Z" fill="#FBBC04"/>
</g>
<g filter="url(#filter7_f_2138_2092)">
<path d="M32.6211 41.2031C38.3467 45.1398 45.9368 44.0435 49.5732 38.7535C53.2101 33.464 51.5163 25.985 45.7902 22.0483C40.0641 18.1106 32.4746 19.2079 28.8377 24.4969C25.2013 29.7869 26.8945 37.2659 32.6206 41.2031H32.6211Z" fill="#3186FF"/>
</g>
<g filter="url(#filter8_f_2138_2092)">
<path d="M43.0298 13.5592C44.4865 15.5398 42.6143 19.3901 38.8489 22.1601C35.0829 24.9301 30.8495 25.5698 29.3928 23.5896C27.9361 21.6084 29.8078 17.7576 33.5732 14.9881C37.3392 12.2181 41.5731 11.5785 43.0293 13.5586L43.0298 13.5592Z" fill="#749BFF"/>
</g>
<g filter="url(#filter9_f_2138_2092)">
<path d="M31.0709 23.0415C36.8946 17.6393 38.8933 10.3254 35.5356 6.70546C32.1779 3.08552 24.7344 4.52938 18.9106 9.93152C13.0869 15.3337 11.0877 22.6476 14.4459 26.2675C17.8036 29.8875 25.2471 28.4436 31.0709 23.0415Z" fill="#FC413D"/>
</g>
<g filter="url(#filter10_f_2138_2092)">
<path d="M19.1347 42.442C22.5963 44.9194 26.57 45.2958 28.0108 43.2833C29.4515 41.2702 27.8133 37.6302 24.3517 35.1528C20.8907 32.6754 16.9165 32.299 15.4762 34.3116C14.0354 36.3246 15.6731 39.9646 19.1347 42.442Z" fill="#FFEE48"/>
</g>
</g>
<defs>
<filter id="filter0_f_2138_2092" x="4.56391" y="21.5229" width="20.1964" height="22.2238" filterUnits="userSpaceOnUse" color-interpolation-filters="sRGB">
<feFlood flood-opacity="0" result="BackgroundImageFix"/>
<feBlend mode="normal" in="SourceGraphic" in2="BackgroundImageFix" result="shape"/>
<feGaussianBlur stdDeviation="1.26492" result="effect1_foregroundBlur_2138_2092"/>
</filter>
<filter id="filter1_f_2138_2092" x="7.04483" y="-5.9415" width="43.6369" height="44.0607" filterUnits="userSpaceOnUse" color-interpolation-filters="sRGB">
<feFlood flood-opacity="0" result="BackgroundImageFix"/>
<feBlend mode="normal" in="SourceGraphic" in2="BackgroundImageFix" result="shape"/>
<feGaussianBlur stdDeviation="6.1143" result="effect1_foregroundBlur_2138_2092"/>
</filter>
<filter id="filter2_f_2138_2092" x="4.07274" y="20.8911" width="40.8545" height="46.7491" filterUnits="userSpaceOnUse" color-interpolation-filters="sRGB">
<feFlood flood-opacity="0" result="BackgroundImageFix"/>
<feBlend mode="normal" in="SourceGraphic" in2="BackgroundImageFix" result="shape"/>
<feGaussianBlur stdDeviation="5.19801" result="effect1_foregroundBlur_2138_2092"/>
</filter>
<filter id="filter3_f_2138_2092" x="4.07274" y="20.8911" width="40.8545" height="46.7491" filterUnits="userSpaceOnUse" color-interpolation-filters="sRGB">
<feFlood flood-opacity="0" result="BackgroundImageFix"/>
<feBlend mode="normal" in="SourceGraphic" in2="BackgroundImageFix" result="shape"/>
<feGaussianBlur stdDeviation="5.19801" result="effect1_foregroundBlur_2138_2092"/>
</filter>
<filter id="filter4_f_2138_2092" x="4.5532" y="22.7095" width="40.9991" height="41.9112" filterUnits="userSpaceOnUse" color-interpolation-filters="sRGB">
<feFlood flood-opacity="0" result="BackgroundImageFix"/>
<feBlend mode="normal" in="SourceGraphic" in2="BackgroundImageFix" result="shape"/>
<feGaussianBlur stdDeviation="5.19801" result="effect1_foregroundBlur_2138_2092"/>
</filter>
<filter id="filter5_f_2138_2092" x="30.0978" y="8.82049" width="38.6246" height="37.9254" filterUnits="userSpaceOnUse" color-interpolation-filters="sRGB">
<feFlood flood-opacity="0" result="BackgroundImageFix"/>
<feBlend mode="normal" in="SourceGraphic" in2="BackgroundImageFix" result="shape"/>
<feGaussianBlur stdDeviation="4.93937" result="effect1_foregroundBlur_2138_2092"/>
</filter>
<filter id="filter6_f_2138_2092" x="-5.08209" y="6.40424" width="40.1759" height="40.4982" filterUnits="userSpaceOnUse" color-interpolation-filters="sRGB">
<feFlood flood-opacity="0" result="BackgroundImageFix"/>
<feBlend mode="normal" in="SourceGraphic" in2="BackgroundImageFix" result="shape"/>
<feGaussianBlur stdDeviation="4.47659" result="effect1_foregroundBlur_2138_2092"/>
</filter>
<filter id="filter7_f_2138_2092" x="18.9261" y="11.6898" width="40.5579" height="39.8704" filterUnits="userSpaceOnUse" color-interpolation-filters="sRGB">
<feFlood flood-opacity="0" result="BackgroundImageFix"/>
<feBlend mode="normal" in="SourceGraphic" in2="BackgroundImageFix" result="shape"/>
<feGaussianBlur stdDeviation="3.99787" result="effect1_foregroundBlur_2138_2092"/>
</filter>
<filter id="filter8_f_2138_2092" x="21.7439" y="5.25368" width="28.934" height="26.6411" filterUnits="userSpaceOnUse" color-interpolation-filters="sRGB">
<feFlood flood-opacity="0" result="BackgroundImageFix"/>
<feBlend mode="normal" in="SourceGraphic" in2="BackgroundImageFix" result="shape"/>
<feGaussianBlur stdDeviation="3.57726" result="effect1_foregroundBlur_2138_2092"/>
</filter>
<filter id="filter9_f_2138_2092" x="6.77358" y="-1.33189" width="36.4333" height="35.6364" filterUnits="userSpaceOnUse" color-interpolation-filters="sRGB">
<feFlood flood-opacity="0" result="BackgroundImageFix"/>
<feBlend mode="normal" in="SourceGraphic" in2="BackgroundImageFix" result="shape"/>
<feGaussianBlur stdDeviation="3.02141" result="effect1_foregroundBlur_2138_2092"/>
</filter>
<filter id="filter10_f_2138_2092" x="7.47363" y="25.5381" width="28.541" height="26.5195" filterUnits="userSpaceOnUse" color-interpolation-filters="sRGB">
<feFlood flood-opacity="0" result="BackgroundImageFix"/>
<feBlend mode="normal" in="SourceGraphic" in2="BackgroundImageFix" result="shape"/>
<feGaussianBlur stdDeviation="3.73975" result="effect1_foregroundBlur_2138_2092"/>
</filter>
<linearGradient id="paint0_linear_2138_2092" x1="31.4431" y1="0" x2="31.4431" y2="62.8863" gradientUnits="userSpaceOnUse">
<stop stop-color="#1E1E1E"/>
<stop offset="1" stop-color="#141414"/>
</linearGradient>
<linearGradient id="paint1_linear_2138_2092" x1="24.2432" y1="37.0862" x2="41.5747" y2="22.4748" gradientUnits="userSpaceOnUse">
<stop stop-color="#4893FC"/>
<stop offset="0.27" stop-color="#4893FC"/>
<stop offset="0.777" stop-color="#969DFF"/>
<stop offset="1" stop-color="#BD99FE"/>
</linearGradient>
</defs>
</svg>
