<svg width="63" height="63" viewBox="0 0 63 63" fill="none" xmlns="http://www.w3.org/2000/svg">
<rect x="0.320848" y="0.320848" width="62.2446" height="62.2446" rx="15.7216" fill="url(#paint0_linear_2138_2128)" stroke="#26252A" stroke-width="0.641697"/>
<path d="M31.4863 51.333C30.9469 51.333 30.4435 51.1891 29.976 50.9374L25.1932 48.0965C24.4739 47.7009 24.8336 47.5571 25.0493 47.4851C26.0203 47.1615 26.2001 47.0896 27.207 46.5142C27.3149 46.4423 27.4587 46.4782 27.5666 46.5501L31.2346 48.7438C31.3784 48.8157 31.5583 48.8157 31.6661 48.7438L46.0146 40.4368C46.1584 40.3649 46.2303 40.221 46.2303 40.0412V23.4632C46.2303 23.2834 46.1584 23.1396 46.0146 23.0676L31.6661 14.7966C31.5223 14.7247 31.3425 14.7247 31.2346 14.7966L16.8862 23.0676C16.7423 23.1396 16.6704 23.3194 16.6704 23.4632V40.0412C16.6704 40.1851 16.7423 40.3649 16.8862 40.4368L20.8059 42.7023C22.9276 43.7812 24.2582 42.5225 24.2582 41.2639V24.9017C24.2582 24.6859 24.438 24.4701 24.6897 24.4701H26.5237C26.7395 24.4701 26.9552 24.6499 26.9552 24.9017V41.2639C26.9552 44.1048 25.4089 45.759 22.7119 45.759C21.8848 45.759 21.2375 45.759 19.4034 44.86L15.6275 42.7023C14.6926 42.1629 14.1172 41.156 14.1172 40.0772V23.4992C14.1172 22.4203 14.6926 21.4134 15.6275 20.874L29.976 12.567C30.875 12.0636 32.0977 12.0636 32.9967 12.567L47.3451 20.874C48.2801 21.4134 48.8555 22.4203 48.8555 23.4992V40.0772C48.8555 41.156 48.2801 42.1629 47.3451 42.7023L32.9967 51.0093C32.5292 51.2251 31.9898 51.333 31.4863 51.333ZM35.9095 39.9333C29.6164 39.9333 28.3218 37.0565 28.3218 34.6111C28.3218 34.3953 28.5016 34.1796 28.7533 34.1796H30.6233C30.839 34.1796 31.0188 34.3234 31.0188 34.5392C31.3065 36.4451 32.1336 37.3801 35.9455 37.3801C38.9662 37.3801 40.2608 36.6968 40.2608 35.0786C40.2608 34.1436 39.9012 33.4604 35.1903 32.9929C31.2706 32.5973 28.8252 31.7342 28.8252 28.6056C28.8252 25.6928 31.2706 23.9667 35.3701 23.9667C39.9731 23.9667 42.2387 25.5489 42.5263 29.0012C42.5263 29.1091 42.4904 29.217 42.4185 29.3248C42.3465 29.3968 42.2387 29.4687 42.1308 29.4687H40.2608C40.081 29.4687 39.9012 29.3248 39.8652 29.145C39.4337 27.1672 38.3189 26.5199 35.3701 26.5199C32.0617 26.5199 31.6661 27.6706 31.6661 28.5337C31.6661 29.5766 32.1336 29.9002 36.5928 30.4756C41.016 31.051 43.1017 31.8781 43.1017 34.9707C43.0658 38.1353 40.4766 39.9333 35.9095 39.9333Z" fill="#539E43"/>
<defs>
<linearGradient id="paint0_linear_2138_2128" x1="31.4431" y1="0" x2="31.4431" y2="62.8863" gradientUnits="userSpaceOnUse">
<stop stop-color="#1E1E1E"/>
<stop offset="1" stop-color="#141414"/>
</linearGradient>
</defs>
</svg>
