<svg width="63" height="63" viewBox="0 0 63 63" fill="none" xmlns="http://www.w3.org/2000/svg">
<rect x="0.320848" y="0.320848" width="62.2446" height="62.2446" rx="15.7216" fill="url(#paint0_linear_2138_2079)" stroke="#26252A" stroke-width="0.641697"/>
<path d="M35.3035 30.5264C35.3035 28.2867 33.4308 26.4707 31.1205 26.4707C28.8105 26.4707 26.9375 28.2867 26.9375 30.5264C26.9375 32.7665 28.8105 34.5823 31.1205 34.5823C33.4308 34.5823 35.3035 32.7665 35.3035 30.5264Z" fill="#53C1DE"/>
<path fill-rule="evenodd" clip-rule="evenodd" d="M44.7065 22.9993C45.5898 19.5189 46.7002 13.0649 42.7859 10.8768C38.8899 8.69823 33.82 12.8728 31.1429 15.3785C28.4735 12.8977 23.2612 8.74104 19.3503 10.9361C15.4558 13.122 16.6568 19.469 17.5597 22.9712C13.9268 23.9716 7.69922 26.1264 7.69922 30.5289C7.69922 34.919 13.9203 37.2634 17.5317 38.2629C16.6254 41.7844 15.4846 48.0407 19.3841 50.2218C23.3096 52.4164 28.5057 48.3587 31.2077 45.8255C33.902 48.346 38.9231 52.4303 42.8199 50.2432C46.7289 48.0492 45.7108 41.6817 44.8078 38.1592C48.3086 37.1575 54.5431 34.8642 54.5431 30.5289C54.5431 26.1687 48.2821 23.9964 44.7065 22.9993ZM44.2627 36.2925C43.6698 34.4727 42.8696 32.5376 41.8907 30.5386C42.8251 28.5868 43.5943 26.6767 44.1706 24.8686C46.7918 25.6055 52.5421 27.2895 52.5421 30.5289C52.5421 33.7988 47.024 35.4988 44.2627 36.2925ZM41.8172 48.564C38.9097 50.1957 34.5909 46.2899 32.6011 44.4338C33.9212 43.0339 35.2403 41.4066 36.5277 39.5995C38.7925 39.4048 40.9318 39.0862 42.8721 38.6514C43.5076 41.143 44.7374 46.9249 41.8172 48.564ZM20.3839 48.5407C17.4762 46.9151 18.8052 41.3322 19.472 38.7382C21.3906 39.1498 23.5146 39.4458 25.7847 39.6243C27.0806 41.3925 28.4379 43.0178 29.8058 44.4413C28.1158 46.0263 23.3053 50.1739 20.3839 48.5407ZM9.70022 30.5289C9.70022 27.2469 15.4161 25.5751 18.0971 24.8401C18.6833 26.6887 19.4523 28.6216 20.3802 30.5763C19.4402 32.5599 18.6603 34.5235 18.0687 36.394C15.5123 35.6844 9.70022 33.813 9.70022 30.5289ZM20.3528 12.6153C23.2725 10.9767 27.8026 14.9673 29.7407 16.7635C28.3798 18.1803 27.035 19.7934 25.7502 21.5515C23.5471 21.7495 21.4381 22.0674 19.4993 22.4934C18.7719 19.6687 17.4364 14.2521 20.3528 12.6153ZM37.9593 23.6604C39.4539 23.8432 40.8859 24.0865 42.2305 24.3841C41.8268 25.6386 41.3237 26.9504 40.7312 28.2951C39.8722 26.7149 38.9502 25.1664 37.9593 23.6604ZM31.1435 18.15C32.0665 19.1195 32.9908 20.2021 33.9002 21.3766C32.0557 21.292 30.2082 21.2917 28.3636 21.3753C29.2738 20.2117 30.2061 19.1307 31.1435 18.15ZM21.5283 28.2937C20.9456 26.9537 20.447 25.6361 20.0398 24.3637C21.3763 24.0737 22.8017 23.8367 24.2866 23.6568C23.2929 25.1595 22.3724 26.7074 21.5283 28.2937ZM24.3293 37.5396C22.7953 37.3736 21.3484 37.1486 20.0122 36.8666C20.4258 35.5718 20.9354 34.2259 21.5306 32.8569C22.3863 34.4598 23.3209 36.0226 24.3293 37.5396ZM31.1989 43.045C30.2505 42.0527 29.3044 40.9551 28.3805 39.7747C30.2355 39.8453 32.0941 39.8454 33.949 39.7652C33.0368 40.9672 32.1156 42.0663 31.1989 43.045ZM40.7502 32.7873C41.3764 34.1711 41.9041 35.5097 42.3234 36.7826C40.9651 37.0832 39.4987 37.3252 37.9536 37.5049C38.9519 35.9703 39.8886 34.3978 40.7502 32.7873ZM35.411 37.7401C32.5735 37.9367 29.7183 37.9345 26.8799 37.7562C25.2671 35.4719 23.8313 33.0696 22.592 30.5756C23.8254 28.0868 25.2507 25.6892 26.8559 23.4085C29.6963 23.2004 32.5543 23.1998 35.3947 23.4098C36.9862 25.6903 38.4093 28.0817 39.6712 30.548C38.4243 33.0356 36.9915 35.438 35.411 37.7401ZM41.7864 12.5576C44.7068 14.1908 43.4069 19.9912 42.7689 22.5135C40.8255 22.0786 38.715 21.7551 36.5055 21.554C35.2183 19.7769 33.8846 18.161 32.5458 16.7625C34.5087 14.9276 38.8943 10.9404 41.7864 12.5576Z" fill="#53C1DE"/>
<defs>
<linearGradient id="paint0_linear_2138_2079" x1="31.4431" y1="0" x2="31.4431" y2="62.8863" gradientUnits="userSpaceOnUse">
<stop stop-color="#1E1E1E"/>
<stop offset="1" stop-color="#141414"/>
</linearGradient>
</defs>
</svg>
