<svg width="63" height="63" viewBox="0 0 63 63" fill="none" xmlns="http://www.w3.org/2000/svg">
<rect x="0.320848" y="0.320848" width="62.2446" height="62.2446" rx="15.7216" fill="url(#paint0_linear_2138_2084)" stroke="#26252A" stroke-width="0.641697"/>
<path fill-rule="evenodd" clip-rule="evenodd" d="M31.7646 18.6094C25.6891 18.6094 21.8939 21.5319 20.3745 27.3792C22.6525 24.4567 25.311 23.3604 28.3476 24.0905C30.0811 24.5074 31.3204 25.7183 32.6895 27.0572C34.9242 29.2386 37.5098 31.7642 43.1547 31.7642C49.2302 31.7642 53.0254 28.8416 54.5448 22.9943C52.2668 25.9169 49.6106 27.0131 46.5718 26.283C44.8382 25.8661 43.5989 24.6552 42.2276 23.3163C39.9951 21.1327 37.4118 18.6094 31.7646 18.6094ZM20.3745 31.7642C14.299 31.7642 10.5038 34.6867 8.98438 40.534C11.2624 37.6093 13.9209 36.5152 16.9575 37.2453C18.691 37.6622 19.9303 38.8731 21.3016 40.212C23.5341 42.3934 26.1197 44.9189 31.7669 44.9189C37.8424 44.9189 41.6376 41.9964 43.157 36.1491C40.879 39.0716 38.2205 40.1679 35.1839 39.4378C33.4503 39.0209 32.2111 37.81 30.842 36.4711C28.605 34.2897 26.0194 31.7642 20.3745 31.7642Z" fill="#39BEF8"/>
<defs>
<linearGradient id="paint0_linear_2138_2084" x1="31.4431" y1="0" x2="31.4431" y2="62.8863" gradientUnits="userSpaceOnUse">
<stop stop-color="#1E1E1E"/>
<stop offset="1" stop-color="#141414"/>
</linearGradient>
</defs>
</svg>
