<svg width="1763" height="491" viewBox="0 0 1763 491" fill="none" xmlns="http://www.w3.org/2000/svg">
<path d="M81 370.295C77.2971 370.295 74.2952 373.297 74.2952 377C74.2952 380.703 77.2971 383.705 81 383.705C84.7029 383.705 87.7048 380.703 87.7048 377C87.7048 373.297 84.7029 370.295 81 370.295ZM81 164L79.7429 164L79.7429 377L81 377L82.2571 377L82.2571 164L81 164Z" fill="url(#paint0_linear_2413_810)"/>
<text fill="white" style="white-space: pre" xml:space="preserve" font-family="Pretendard" font-size="36" font-weight="bold" letter-spacing="0em"><tspan x="44.4805" y="115.797">75&#xd68c;</tspan></text>
<text fill="white" style="white-space: pre" xml:space="preserve" font-family="Pretendard" font-size="30" font-weight="bold" letter-spacing="0em"><tspan x="0.259766" y="24.6641">&#xd50c;&#xb808;&#xc774;&#xc2a4; &#xc720;&#xc785;</tspan></text>
<text fill="#02C75A" style="white-space: pre" xml:space="preserve" font-family="Pretendard" font-size="54" font-weight="bold" letter-spacing="0em"><tspan x="6.16895" y="479.695">511&#xd68c;</tspan></text>
<g filter="url(#filter0_d_2413_810)">
<rect x="20" y="243" width="128" height="56" rx="12" fill="#02C75A"/>
<text fill="white" style="white-space: pre" xml:space="preserve" font-family="Pretendard" font-size="30" font-weight="bold" letter-spacing="0em"><tspan x="32.0859" y="281.664">6.8&#xbc30;</tspan></text>
</g>
<path d="M394 370.295C390.297 370.295 387.295 373.297 387.295 377C387.295 380.703 390.297 383.705 394 383.705C397.703 383.705 400.705 380.703 400.705 377C400.705 373.297 397.703 370.295 394 370.295ZM394 164L392.743 164L392.743 377L394 377L395.257 377L395.257 164L394 164Z" fill="url(#paint1_linear_2413_810)"/>
<text fill="white" style="white-space: pre" xml:space="preserve" font-family="Pretendard" font-size="36" font-weight="bold" letter-spacing="0em"><tspan x="367.061" y="115.797">0&#xd68c;</tspan></text>
<text fill="white" style="white-space: pre" xml:space="preserve" font-family="Pretendard" font-size="30" font-weight="bold" letter-spacing="0em"><tspan x="313.26" y="24.6641">&#xc2a4;&#xb9c8;&#xd2b8;&#xcf5c; &#xd638;&#xcd9c;</tspan></text>
<text fill="#02C75A" style="white-space: pre" xml:space="preserve" font-family="Pretendard" font-size="54" font-weight="bold" letter-spacing="0em"><tspan x="336.361" y="479.695">37&#xd68c;</tspan></text>
<g filter="url(#filter1_d_2413_810)">
<rect x="297" y="243" width="194" height="56" rx="12" fill="#02C75A"/>
<text fill="white" style="white-space: pre" xml:space="preserve" font-family="Pretendard" font-size="30" font-weight="bold" letter-spacing="0em"><tspan x="309.303" y="281.664">&#xc2e0;&#xaddc; &#xcc44;&#xb110; &#xc791;&#xb3d9;</tspan></text>
</g>
<path d="M784 370.295C780.297 370.295 777.295 373.297 777.295 377C777.295 380.703 780.297 383.705 784 383.705C787.703 383.705 790.705 380.703 790.705 377C790.705 373.297 787.703 370.295 784 370.295ZM784 164L782.743 164L782.743 377L784 377L785.257 377L785.257 164L784 164Z" fill="url(#paint2_linear_2413_810)"/>
<text fill="white" style="white-space: pre" xml:space="preserve" font-family="Pretendard" font-size="36" font-weight="bold" letter-spacing="0em"><tspan x="751.061" y="115.797">0&#xd68c; </tspan></text>
<text fill="white" style="white-space: pre" xml:space="preserve" font-family="Pretendard" font-size="30" font-weight="bold" letter-spacing="0em"><tspan x="710.224" y="24.6641">&#xb124;&#xc774;&#xbc84; &#xc608;&#xc57d;</tspan></text>
<text fill="#02C75A" style="white-space: pre" xml:space="preserve" font-family="Pretendard" font-size="54" font-weight="bold" letter-spacing="0em"><tspan x="615.183" y="479.695">6&#xac74; </tspan></text>
<text fill="#02C75A" style="white-space: pre" xml:space="preserve" font-family="Pretendard" font-size="54" letter-spacing="0em"><tspan x="708.153" y="479.695">(&#xb0a8;5 / &#xc5ec;1)</tspan></text>
<g filter="url(#filter2_d_2413_810)">
<rect x="625" y="243" width="318" height="56" rx="12" fill="#02C75A"/>
<text fill="white" style="white-space: pre" xml:space="preserve" font-family="Pretendard" font-size="30" font-weight="bold" letter-spacing="0em"><tspan x="637.311" y="281.664">&#xc624;&#xd508; 12&#xc2dc;&#xac04; &#xb9cc;&#xc5d0; &#xccab; &#xc608;&#xc57d;</tspan></text>
</g>
<path d="M1193 370.295C1189.3 370.295 1186.3 373.297 1186.3 377C1186.3 380.703 1189.3 383.705 1193 383.705C1196.7 383.705 1199.7 380.703 1199.7 377C1199.7 373.297 1196.7 370.295 1193 370.295ZM1193 164L1191.74 164L1191.74 377L1193 377L1194.26 377L1194.26 164L1193 164Z" fill="url(#paint3_linear_2413_810)"/>
<text fill="white" style="white-space: pre" xml:space="preserve" font-family="Pretendard" font-size="36" font-weight="bold" letter-spacing="0em"><tspan x="1166.06" y="115.797">0&#xd68c;</tspan></text>
<text fill="white" style="white-space: pre" xml:space="preserve" font-family="Pretendard" font-size="30" font-weight="bold" letter-spacing="0em"><tspan x="1077.13" y="24.6641">AI &#xb9de;&#xcda4; &#xc11c;&#xbe44;&#xc2a4; &#xc0ac;&#xc6a9;</tspan></text>
<text fill="#02C75A" style="white-space: pre" xml:space="preserve" font-family="Pretendard" font-size="54" font-weight="bold" letter-spacing="0em"><tspan x="1082.02" y="479.695">&#xb204;&#xc801; 101&#xac74;</tspan></text>
<g filter="url(#filter3_d_2413_810)">
<rect x="1083" y="243" width="220" height="56" rx="12" fill="#02C75A"/>
<text fill="white" style="white-space: pre" xml:space="preserve" font-family="Pretendard" font-size="30" font-weight="bold" letter-spacing="0em"><tspan x="1095.34" y="281.664">&#xb370;&#xc774;&#xd130; &#xd1b5;&#xacc4; &#xc218;&#xc9d1;</tspan></text>
</g>
<path d="M1603 370.295C1599.3 370.295 1596.3 373.297 1596.3 377C1596.3 380.703 1599.3 383.705 1603 383.705C1606.7 383.705 1609.7 380.703 1609.7 377C1609.7 373.297 1606.7 370.295 1603 370.295ZM1603 164L1601.74 164L1601.74 377L1603 377L1604.26 377L1604.26 164L1603 164Z" fill="url(#paint4_linear_2413_810)"/>
<text fill="white" style="white-space: pre" xml:space="preserve" font-family="Pretendard" font-size="36" font-weight="bold" letter-spacing="0em"><tspan x="1470.28" y="115.797">&#xae30;&#xc874; &#xb2e8;&#xace8; &#xc81c;&#xc678; 0&#xba85;</tspan></text>
<text fill="white" style="white-space: pre" xml:space="preserve" font-family="Pretendard" font-size="30" font-weight="bold" letter-spacing="0em"><tspan x="1489.42" y="24.6641">&#xc2e0;&#xaddc; &#xb0a8;&#xc131; &#xc190;&#xb2d8; &#xbc29;&#xbb38;</tspan></text>
<text fill="#02C75A" style="white-space: pre" xml:space="preserve" font-family="Pretendard" font-size="54" font-weight="bold" letter-spacing="0em"><tspan x="1443.48" y="479.695">&#xc2e0;&#xaddc; &#xb0a8;&#xc131; 14&#xba85;</tspan></text>
<g filter="url(#filter4_d_2413_810)">
<rect x="1493" y="243" width="220" height="56" rx="12" fill="#02C75A"/>
<text fill="white" style="white-space: pre" xml:space="preserve" font-family="Pretendard" font-size="30" font-weight="bold" letter-spacing="0em"><tspan x="1505.34" y="281.664">&#xc0ac;&#xc7a5;&#xb2d8; &#xd604;&#xc7a5; &#xc2e4;&#xce21;</tspan></text>
</g>
<defs>
<filter id="filter0_d_2413_810" x="16" y="243" width="136" height="64" filterUnits="userSpaceOnUse" color-interpolation-filters="sRGB">
<feFlood flood-opacity="0" result="BackgroundImageFix"/>
<feColorMatrix in="SourceAlpha" type="matrix" values="0 0 0 0 0 0 0 0 0 0 0 0 0 0 0 0 0 0 127 0" result="hardAlpha"/>
<feOffset dy="4"/>
<feGaussianBlur stdDeviation="2"/>
<feComposite in2="hardAlpha" operator="out"/>
<feColorMatrix type="matrix" values="0 0 0 0 0 0 0 0 0 0 0 0 0 0 0 0 0 0 0.25 0"/>
<feBlend mode="normal" in2="BackgroundImageFix" result="effect1_dropShadow_2413_810"/>
<feBlend mode="normal" in="SourceGraphic" in2="effect1_dropShadow_2413_810" result="shape"/>
</filter>
<filter id="filter1_d_2413_810" x="293" y="243" width="202" height="64" filterUnits="userSpaceOnUse" color-interpolation-filters="sRGB">
<feFlood flood-opacity="0" result="BackgroundImageFix"/>
<feColorMatrix in="SourceAlpha" type="matrix" values="0 0 0 0 0 0 0 0 0 0 0 0 0 0 0 0 0 0 127 0" result="hardAlpha"/>
<feOffset dy="4"/>
<feGaussianBlur stdDeviation="2"/>
<feComposite in2="hardAlpha" operator="out"/>
<feColorMatrix type="matrix" values="0 0 0 0 0 0 0 0 0 0 0 0 0 0 0 0 0 0 0.25 0"/>
<feBlend mode="normal" in2="BackgroundImageFix" result="effect1_dropShadow_2413_810"/>
<feBlend mode="normal" in="SourceGraphic" in2="effect1_dropShadow_2413_810" result="shape"/>
</filter>
<filter id="filter2_d_2413_810" x="621" y="243" width="326" height="64" filterUnits="userSpaceOnUse" color-interpolation-filters="sRGB">
<feFlood flood-opacity="0" result="BackgroundImageFix"/>
<feColorMatrix in="SourceAlpha" type="matrix" values="0 0 0 0 0 0 0 0 0 0 0 0 0 0 0 0 0 0 127 0" result="hardAlpha"/>
<feOffset dy="4"/>
<feGaussianBlur stdDeviation="2"/>
<feComposite in2="hardAlpha" operator="out"/>
<feColorMatrix type="matrix" values="0 0 0 0 0 0 0 0 0 0 0 0 0 0 0 0 0 0 0.25 0"/>
<feBlend mode="normal" in2="BackgroundImageFix" result="effect1_dropShadow_2413_810"/>
<feBlend mode="normal" in="SourceGraphic" in2="effect1_dropShadow_2413_810" result="shape"/>
</filter>
<filter id="filter3_d_2413_810" x="1079" y="243" width="228" height="64" filterUnits="userSpaceOnUse" color-interpolation-filters="sRGB">
<feFlood flood-opacity="0" result="BackgroundImageFix"/>
<feColorMatrix in="SourceAlpha" type="matrix" values="0 0 0 0 0 0 0 0 0 0 0 0 0 0 0 0 0 0 127 0" result="hardAlpha"/>
<feOffset dy="4"/>
<feGaussianBlur stdDeviation="2"/>
<feComposite in2="hardAlpha" operator="out"/>
<feColorMatrix type="matrix" values="0 0 0 0 0 0 0 0 0 0 0 0 0 0 0 0 0 0 0.25 0"/>
<feBlend mode="normal" in2="BackgroundImageFix" result="effect1_dropShadow_2413_810"/>
<feBlend mode="normal" in="SourceGraphic" in2="effect1_dropShadow_2413_810" result="shape"/>
</filter>
<filter id="filter4_d_2413_810" x="1489" y="243" width="228" height="64" filterUnits="userSpaceOnUse" color-interpolation-filters="sRGB">
<feFlood flood-opacity="0" result="BackgroundImageFix"/>
<feColorMatrix in="SourceAlpha" type="matrix" values="0 0 0 0 0 0 0 0 0 0 0 0 0 0 0 0 0 0 127 0" result="hardAlpha"/>
<feOffset dy="4"/>
<feGaussianBlur stdDeviation="2"/>
<feComposite in2="hardAlpha" operator="out"/>
<feColorMatrix type="matrix" values="0 0 0 0 0 0 0 0 0 0 0 0 0 0 0 0 0 0 0.25 0"/>
<feBlend mode="normal" in2="BackgroundImageFix" result="effect1_dropShadow_2413_810"/>
<feBlend mode="normal" in="SourceGraphic" in2="effect1_dropShadow_2413_810" result="shape"/>
</filter>
<linearGradient id="paint0_linear_2413_810" x1="80.5" y1="164" x2="80.5" y2="377" gradientUnits="userSpaceOnUse">
<stop stop-color="white" stop-opacity="0"/>
<stop offset="0.5" stop-color="#81E3AD" stop-opacity="0.5"/>
<stop offset="1" stop-color="#02C75A"/>
</linearGradient>
<linearGradient id="paint1_linear_2413_810" x1="393.5" y1="164" x2="393.5" y2="377" gradientUnits="userSpaceOnUse">
<stop stop-color="white" stop-opacity="0"/>
<stop offset="0.5" stop-color="#81E3AD" stop-opacity="0.5"/>
<stop offset="1" stop-color="#02C75A"/>
</linearGradient>
<linearGradient id="paint2_linear_2413_810" x1="783.5" y1="164" x2="783.5" y2="377" gradientUnits="userSpaceOnUse">
<stop stop-color="white" stop-opacity="0"/>
<stop offset="0.5" stop-color="#81E3AD" stop-opacity="0.5"/>
<stop offset="1" stop-color="#02C75A"/>
</linearGradient>
<linearGradient id="paint3_linear_2413_810" x1="1192.5" y1="164" x2="1192.5" y2="377" gradientUnits="userSpaceOnUse">
<stop stop-color="white" stop-opacity="0"/>
<stop offset="0.5" stop-color="#81E3AD" stop-opacity="0.5"/>
<stop offset="1" stop-color="#02C75A"/>
</linearGradient>
<linearGradient id="paint4_linear_2413_810" x1="1602.5" y1="164" x2="1602.5" y2="377" gradientUnits="userSpaceOnUse">
<stop stop-color="white" stop-opacity="0"/>
<stop offset="0.5" stop-color="#81E3AD" stop-opacity="0.5"/>
<stop offset="1" stop-color="#02C75A"/>
</linearGradient>
</defs>
</svg>
