<svg width="63" height="63" viewBox="0 0 63 63" fill="none" xmlns="http://www.w3.org/2000/svg">
<rect x="0.320848" y="0.320848" width="62.2446" height="62.2446" rx="15.7216" fill="url(#paint0_linear_2138_2087)" stroke="#26252A" stroke-width="0.641697"/>
<path d="M51.2005 17.3515L32.8151 50.2276C32.4354 50.9062 31.4603 50.9103 31.0749 50.2349L12.3251 17.3546C11.9054 16.6184 12.5347 15.7268 13.3687 15.8758L31.774 19.1657C31.8914 19.1867 32.0116 19.1865 32.1289 19.1652L50.1492 15.8806C50.9804 15.7291 51.6129 16.614 51.2005 17.3515Z" fill="url(#paint1_linear_2138_2087)"/>
<path d="M40.5416 11.5624L26.9359 14.2283C26.8271 14.2496 26.7286 14.3064 26.6556 14.3898C26.5827 14.4733 26.5396 14.5786 26.5331 14.6892L25.6962 28.8244C25.6766 29.1573 25.9823 29.4157 26.3071 29.3407L30.0952 28.4667C30.4497 28.3848 30.77 28.6971 30.6971 29.0534L29.5717 34.5645C29.4959 34.9352 29.8441 35.2525 30.2063 35.1425L32.546 34.4316C32.9088 34.3215 33.2572 34.6396 33.1806 35.0108L31.3921 43.6673C31.2802 44.2088 32.0004 44.5039 32.3007 44.0398L32.5014 43.7297L43.588 21.6043C43.7737 21.2338 43.4537 20.8115 43.0466 20.8899L39.1476 21.6425C38.7811 21.7131 38.4694 21.3719 38.5727 21.0133L41.1177 12.1912C41.2212 11.832 40.9084 11.4905 40.5416 11.5624Z" fill="url(#paint2_linear_2138_2087)"/>
<defs>
<linearGradient id="paint0_linear_2138_2087" x1="31.4431" y1="0" x2="31.4431" y2="62.8863" gradientUnits="userSpaceOnUse">
<stop stop-color="#1E1E1E"/>
<stop offset="1" stop-color="#141414"/>
</linearGradient>
<linearGradient id="paint1_linear_2138_2087" x1="11.8672" y1="14.7008" x2="34.7481" y2="45.7748" gradientUnits="userSpaceOnUse">
<stop stop-color="#41D1FF"/>
<stop offset="1" stop-color="#BD34FE"/>
</linearGradient>
<linearGradient id="paint2_linear_2138_2087" x1="30.7169" y1="12.2861" x2="34.8559" y2="40.6795" gradientUnits="userSpaceOnUse">
<stop stop-color="#FFEA83"/>
<stop offset="0.0833" stop-color="#FFDD35"/>
<stop offset="1" stop-color="#FFA800"/>
</linearGradient>
</defs>
</svg>
