<svg width="328" height="41" viewBox="0 0 328 41" fill="none" xmlns="http://www.w3.org/2000/svg">
<g clip-path="url(#clip0_1836_19304)">
<path d="M49.626 18.4931C50.2367 18.4931 50.8158 18.6063 51.3633 18.8327C51.9107 19.0538 52.395 19.4012 52.8162 19.875C53.2426 20.3435 53.5769 20.9463 53.819 21.6833C54.0612 22.415 54.1823 23.2968 54.1823 24.3286V24.3443C54.1823 25.6236 53.998 26.7185 53.6295 27.6292C53.261 28.54 52.732 29.2401 52.0423 29.7297C51.358 30.214 50.5394 30.4561 49.5866 30.4561C48.8864 30.4561 48.2547 30.3298 47.6914 30.0771C47.1334 29.8192 46.6702 29.4665 46.3017 29.019C45.9384 28.5663 45.6937 28.0504 45.5673 27.4713L45.5515 27.3845H47.5493L47.5809 27.4634C47.6809 27.7266 47.823 27.9583 48.0073 28.1583C48.1968 28.3583 48.4232 28.5136 48.6864 28.6242C48.9549 28.7295 49.2549 28.7821 49.5866 28.7821C50.1867 28.7821 50.6763 28.6058 51.0553 28.2531C51.4396 27.8951 51.7265 27.4187 51.916 26.8238C52.1108 26.2237 52.2213 25.5604 52.2476 24.8339C52.2529 24.755 52.2555 24.6786 52.2555 24.6049C52.2555 24.526 52.2555 24.4496 52.2555 24.3759L51.9002 22.4729C51.9002 22.0412 51.8002 21.649 51.6001 21.2963C51.4001 20.9436 51.129 20.6646 50.7868 20.4593C50.4499 20.254 50.0682 20.1514 49.6418 20.1514C49.2312 20.1514 48.8548 20.2514 48.5127 20.4514C48.1705 20.6515 47.8967 20.9252 47.6914 21.2726C47.4861 21.6148 47.3835 21.9991 47.3835 22.4255V22.4413C47.3835 22.8835 47.4809 23.2757 47.6756 23.6179C47.8704 23.9548 48.1363 24.2206 48.4732 24.4154C48.8101 24.6102 49.1944 24.7076 49.626 24.7076C50.0577 24.7076 50.4446 24.6128 50.7868 24.4233C51.129 24.2338 51.4001 23.9706 51.6001 23.6337C51.8002 23.2968 51.9002 22.9151 51.9002 22.4887V22.4729H52.374V24.5733H52.0976C51.9607 24.8734 51.7581 25.1524 51.4896 25.4104C51.2211 25.6683 50.8895 25.8762 50.4947 26.0342C50.1051 26.1921 49.6471 26.2711 49.1207 26.2711C48.3942 26.2711 47.752 26.1079 47.194 25.7815C46.636 25.4551 46.1964 25.0076 45.8753 24.4391C45.5594 23.8706 45.4015 23.2283 45.4015 22.5124V22.4966C45.4015 21.7227 45.5805 21.0358 45.9384 20.4356C46.3017 19.8302 46.8018 19.3565 47.4388 19.0143C48.081 18.6668 48.8101 18.4931 49.626 18.4931ZM57.2916 28.64C56.9336 28.64 56.6335 28.5215 56.3914 28.2846C56.1545 28.0425 56.0361 27.7477 56.0361 27.4002C56.0361 27.0475 56.1545 26.7527 56.3914 26.5158C56.6335 26.2737 56.9336 26.1526 57.2916 26.1526C57.6548 26.1526 57.9549 26.2737 58.1918 26.5158C58.4287 26.7527 58.5471 27.0475 58.5471 27.4002C58.5471 27.7477 58.4287 28.0425 58.1918 28.2846C57.9549 28.5215 57.6548 28.64 57.2916 28.64ZM57.2916 22.7809C56.9336 22.7809 56.6335 22.6624 56.3914 22.4255C56.1545 22.1834 56.0361 21.8886 56.0361 21.5411C56.0361 21.1884 56.1545 20.8936 56.3914 20.6567C56.6335 20.4146 56.9336 20.2935 57.2916 20.2935C57.6548 20.2935 57.9549 20.4146 58.1918 20.6567C58.4287 20.8936 58.5471 21.1884 58.5471 21.5411C58.5471 21.8886 58.4287 22.1834 58.1918 22.4255C57.9549 22.6624 57.6548 22.7809 57.2916 22.7809ZM65.9284 30.1719V27.9846H60.3535V26.3184C60.6536 25.8078 60.9536 25.2945 61.2537 24.7786C61.559 24.2627 61.867 23.7495 62.1776 23.2388C62.4934 22.723 62.8067 22.215 63.1173 21.7148C63.4331 21.2095 63.7463 20.712 64.0569 20.2224C64.3728 19.7276 64.6886 19.2459 65.0045 18.7774H67.8709V26.3026H69.4107V27.9846H67.8709V30.1719H65.9284ZM62.2487 26.35H65.96V20.404H65.8415C65.6099 20.762 65.3704 21.1305 65.1229 21.5095C64.8808 21.8886 64.636 22.2755 64.3886 22.6703C64.1412 23.0651 63.8964 23.4626 63.6542 23.8627C63.4121 24.2575 63.1725 24.6549 62.9356 25.055C62.6987 25.4498 62.4698 25.842 62.2487 26.2316V26.35ZM73.6492 30.1719V20.7831H73.507L70.6722 22.7809V20.8699L73.6492 18.7774H75.6785V30.1719H73.6492Z" fill="black"/>
<path d="M230.335 25.6846C230.948 25.6846 231.444 26.1639 231.444 26.7549V28.8945C231.444 29.4856 230.948 29.9648 230.335 29.9648H229.225C228.612 29.9646 228.115 29.4854 228.115 28.8945V26.7549C228.115 26.164 228.612 25.6848 229.225 25.6846H230.335ZM235.558 23.5439C236.171 23.544 236.667 24.0232 236.667 24.6143V28.8945C236.667 29.4856 236.171 29.9648 235.558 29.9648H234.448C233.835 29.9648 233.338 29.4856 233.338 28.8945V24.6143C233.338 24.0232 233.835 23.5439 234.448 23.5439H235.558ZM240.78 21.0469C241.393 21.0469 241.891 21.5262 241.891 22.1172V28.8955C241.891 29.4864 241.393 29.9648 240.78 29.9648H239.671C239.058 29.9648 238.561 29.4864 238.561 28.8955V22.1172C238.561 21.5262 239.058 21.0469 239.671 21.0469H240.78ZM246.003 18.5498C246.616 18.5498 247.113 19.0291 247.113 19.6201V28.8945C247.113 29.4856 246.616 29.9648 246.003 29.9648H244.894C244.281 29.9648 243.783 29.4856 243.783 28.8945V19.6201C243.783 19.0291 244.281 18.5498 244.894 18.5498H246.003Z" fill="black"/>
<path d="M259.518 27.4216C260.869 26.2517 262.847 26.2517 264.198 27.4216C264.266 27.4844 264.305 27.573 264.307 27.6667C264.309 27.7605 264.273 27.851 264.208 27.9167L262.093 30.1032C262.031 30.1674 261.946 30.2028 261.858 30.2028C261.77 30.2027 261.686 30.1672 261.624 30.1032L259.508 27.9167C259.443 27.8509 259.407 27.7604 259.409 27.6667C259.411 27.5731 259.45 27.4844 259.518 27.4216ZM256.696 24.5056C259.606 21.7334 264.113 21.7334 267.023 24.5056C267.089 24.5706 267.126 24.6601 267.127 24.7536C267.127 24.847 267.092 24.9373 267.028 25.0036L265.805 26.2683C265.679 26.3974 265.476 26.3999 265.346 26.2741C264.391 25.388 263.147 24.8971 261.858 24.8972C260.57 24.8978 259.328 25.3886 258.373 26.2741C258.243 26.3999 258.04 26.3974 257.914 26.2683L256.692 25.0036C256.628 24.9374 256.592 24.8471 256.592 24.7536C256.593 24.6601 256.63 24.5705 256.696 24.5056ZM253.874 21.5974C258.337 17.2169 265.379 17.2169 269.842 21.5974C269.907 21.6624 269.943 21.7517 269.944 21.8444C269.944 21.9371 269.909 22.0267 269.845 22.0925L268.621 23.3571C268.495 23.4869 268.29 23.4888 268.162 23.361C266.461 21.7054 264.204 20.782 261.858 20.7819C259.512 20.782 257.255 21.7053 255.554 23.361C255.426 23.489 255.221 23.4871 255.095 23.3571L253.871 22.0925C253.807 22.0267 253.772 21.9371 253.772 21.8444C253.773 21.7516 253.809 21.6624 253.874 21.5974Z" fill="black"/>
<rect opacity="0.4" x="277.078" y="18.5499" width="22.8308" height="11.4154" rx="3.32949" stroke="black" stroke-width="0.951282"/>
<path opacity="0.5" d="M301.336 22.355V26.1601C302.103 25.8378 302.601 25.0881 302.601 24.2575C302.601 23.4269 302.103 22.6773 301.336 22.355" fill="black"/>
<rect x="278.505" y="19.9766" width="16.1718" height="8.56154" rx="1.90256" fill="black"/>
</g>
<defs>
<clipPath id="clip0_1836_19304">
<rect width="328" height="41" fill="white"/>
</clipPath>
</defs>
</svg>
