<svg width="360" height="42" viewBox="0 0 360 42" fill="none" xmlns="http://www.w3.org/2000/svg">
<rect width="360" height="42" fill="white"/>
<path d="M23.3092 26C22.9741 26 22.6343 25.9499 22.2899 25.8497C21.9455 25.7495 21.6197 25.5993 21.3125 25.3989C21.0146 25.1894 20.7493 24.9253 20.5166 24.6066C20.2839 24.2878 20.1117 23.9098 20 23.4727L21.3963 22.9262C21.5173 23.4089 21.736 23.8051 22.0525 24.1148C22.3783 24.4153 22.7926 24.5656 23.2952 24.5656C23.5465 24.5656 23.7839 24.5246 24.0073 24.4426C24.2307 24.3515 24.4215 24.2332 24.5798 24.0874C24.738 23.9326 24.8637 23.7505 24.9568 23.541C25.0499 23.3315 25.0964 23.0993 25.0964 22.8443C25.0964 22.5893 25.0499 22.357 24.9568 22.1475C24.873 21.929 24.752 21.7423 24.5938 21.5874C24.4355 21.4326 24.2447 21.3142 24.0213 21.2322C23.7979 21.1412 23.5559 21.0956 23.2952 21.0956C22.988 21.0956 22.7088 21.1639 22.4574 21.3005C22.2061 21.4281 21.9967 21.5965 21.8291 21.806L20.2932 21.1366L20.8657 16.4372H26.0738V17.8169H22.1642L21.8152 20.2486L21.8989 20.276C22.1037 20.1211 22.3411 19.9891 22.611 19.8798C22.881 19.7705 23.2114 19.7158 23.6024 19.7158C24.0027 19.7158 24.3843 19.7933 24.7473 19.9481C25.1197 20.0938 25.4455 20.3033 25.7247 20.5765C26.004 20.8497 26.2274 21.1776 26.3949 21.5601C26.5625 21.9426 26.6463 22.3661 26.6463 22.8306C26.6463 23.286 26.5625 23.7095 26.3949 24.1011C26.2274 24.4836 25.9947 24.816 25.6968 25.0984C25.3989 25.3807 25.0452 25.6038 24.6356 25.7678C24.2354 25.9226 23.7932 26 23.3092 26Z" fill="#222227"/>
<path d="M29.0682 25.8634C28.7703 25.8634 28.5143 25.7632 28.3002 25.5628C28.0954 25.3534 27.993 25.1029 27.993 24.8115C27.993 24.52 28.0954 24.2696 28.3002 24.0601C28.5143 23.8506 28.7703 23.7459 29.0682 23.7459C29.366 23.7459 29.622 23.8506 29.8361 24.0601C30.0502 24.2696 30.1573 24.52 30.1573 24.8115C30.1573 25.1029 30.0502 25.3534 29.8361 25.5628C29.622 25.7632 29.366 25.8634 29.0682 25.8634ZM29.0682 21.0683C28.7703 21.0683 28.5143 20.9681 28.3002 20.7678C28.0954 20.5583 27.993 20.3078 27.993 20.0164C27.993 19.725 28.0954 19.4791 28.3002 19.2787C28.5143 19.0692 28.7703 18.9645 29.0682 18.9645C29.366 18.9645 29.622 19.0692 29.8361 19.2787C30.0502 19.4791 30.1573 19.725 30.1573 20.0164C30.1573 20.3078 30.0502 20.5583 29.8361 20.7678C29.622 20.9681 29.366 21.0683 29.0682 21.0683Z" fill="#222227"/>
<path d="M33.7454 25.7814V18.2678L31.9721 19.0191L31.3857 17.7213L34.1922 16.4372H35.2952V25.7814H33.7454Z" fill="#222227"/>
<path d="M40.2422 26C39.9071 26 39.572 25.9545 39.2369 25.8634C38.9018 25.7723 38.5853 25.6311 38.2874 25.4399C37.9988 25.2395 37.7382 24.9891 37.5055 24.6885C37.2728 24.388 37.0959 24.0282 36.9749 23.6093L38.427 23.0219C38.5574 23.5137 38.7808 23.8916 39.0972 24.1557C39.4137 24.4199 39.7954 24.5519 40.2422 24.5519C40.4656 24.5519 40.6797 24.5155 40.8845 24.4426C41.0986 24.3698 41.2847 24.2696 41.443 24.1421C41.6012 24.0055 41.7269 23.8506 41.82 23.6776C41.9131 23.4954 41.9596 23.2951 41.9596 23.0765C41.9596 22.8579 41.9084 22.6576 41.806 22.4754C41.7129 22.2933 41.5826 22.1384 41.4151 22.0109C41.2475 21.8834 41.0474 21.7832 40.8147 21.7104C40.5913 21.6375 40.3492 21.6011 40.0886 21.6011H39.2648V20.194H40.0048C40.2282 20.194 40.433 20.1667 40.6192 20.112C40.8147 20.0483 40.9869 19.9617 41.1358 19.8525C41.2847 19.7432 41.4011 19.6066 41.4849 19.4426C41.5687 19.2696 41.6105 19.0738 41.6105 18.8552C41.6105 18.4818 41.4709 18.1903 41.1917 17.9809C40.9217 17.7623 40.5773 17.653 40.1584 17.653C39.9257 17.653 39.7209 17.6849 39.5441 17.7486C39.3765 17.8124 39.2322 17.8989 39.1112 18.0082C38.9902 18.1175 38.8878 18.2404 38.804 18.377C38.7296 18.5046 38.6691 18.6366 38.6225 18.7732L37.1983 18.1858C37.2728 17.9672 37.3891 17.7441 37.5474 17.5164C37.7056 17.2796 37.9058 17.0656 38.1478 16.8743C38.3898 16.6831 38.6737 16.5282 38.9995 16.4098C39.3346 16.2823 39.7209 16.2186 40.1584 16.2186C40.6052 16.2186 41.0148 16.2823 41.3871 16.4098C41.7595 16.5373 42.0806 16.7149 42.3506 16.9426C42.6205 17.1703 42.83 17.439 42.9789 17.7486C43.1278 18.0583 43.2023 18.3953 43.2023 18.7596C43.2023 19.0237 43.1651 19.265 43.0906 19.4836C43.0254 19.7022 42.9324 19.898 42.8113 20.071C42.6903 20.235 42.5554 20.3761 42.4064 20.4945C42.2575 20.6129 42.1039 20.7131 41.9457 20.7951V20.877C42.1597 20.9681 42.3645 21.0865 42.56 21.2322C42.7555 21.3689 42.923 21.5328 43.0627 21.724C43.2116 21.9153 43.328 22.1339 43.4117 22.3798C43.4955 22.6166 43.5374 22.8761 43.5374 23.1585C43.5374 23.5683 43.4536 23.9508 43.2861 24.306C43.1185 24.6521 42.8858 24.9526 42.5879 25.2077C42.2994 25.4536 41.955 25.6448 41.5547 25.7814C41.1544 25.9271 40.7169 26 40.2422 26Z" fill="#222227"/>
<path d="M48.1678 25.7814V16H51.6306C52.0774 16 52.4963 16.0729 52.8872 16.2186C53.2875 16.3643 53.6366 16.5692 53.9344 16.8333C54.2323 17.0974 54.465 17.4162 54.6326 17.7896C54.8094 18.1539 54.8979 18.5592 54.8979 19.0055C54.8979 19.4426 54.8094 19.8479 54.6326 20.2213C54.465 20.5856 54.2323 20.8998 53.9344 21.1639C53.6366 21.4281 53.2875 21.633 52.8872 21.7787C52.4963 21.9244 52.0774 21.9973 51.6306 21.9973H49.7456V25.7814H48.1678ZM51.6725 20.5219C51.9331 20.5219 52.1658 20.4809 52.3706 20.3989C52.5754 20.3078 52.7476 20.1894 52.8872 20.0437C53.0268 19.898 53.1339 19.7341 53.2084 19.5519C53.2828 19.3698 53.3201 19.1876 53.3201 19.0055C53.3201 18.8142 53.2828 18.6275 53.2084 18.4454C53.1339 18.2632 53.0268 18.1038 52.8872 17.9672C52.7476 17.8215 52.5754 17.7031 52.3706 17.612C52.1658 17.5209 51.9331 17.4754 51.6725 17.4754H49.7456V20.5219H51.6725Z" fill="#222227"/>
<path d="M56.24 16H57.8178L61.0851 21.5601H61.1689L64.4362 16H66V25.7814H64.4362V20.4672L64.52 18.8279H64.4362L61.5878 23.7049H60.6523L57.8178 18.8279H57.734L57.8178 20.4672V25.7814H56.24V16Z" fill="#222227"/>
<path fill-rule="evenodd" clip-rule="evenodd" d="M246.709 14.6639C246.976 14.3977 246.976 13.966 246.709 13.6997C246.443 13.4334 246.011 13.4334 245.745 13.6997L243.7 15.7452C243.433 16.0114 243.433 16.4431 243.7 16.7094C243.966 16.9757 244.398 16.9757 244.664 16.7094L246.709 14.6639ZM256.255 13.6997C255.989 13.4334 255.557 13.4334 255.291 13.6997C255.024 13.966 255.024 14.3977 255.291 14.6639L257.336 16.7094C257.602 16.9757 258.034 16.9757 258.3 16.7094C258.567 16.4431 258.567 16.0114 258.3 15.7452L256.255 13.6997ZM251 16.2273C247.988 16.2273 245.545 18.6694 245.545 21.6819C245.545 24.6943 247.988 27.1364 251 27.1364C254.012 27.1364 256.455 24.6943 256.455 21.6819C256.455 18.6694 254.012 16.2273 251 16.2273ZM244.182 21.6819C244.182 17.9163 247.234 14.8637 251 14.8637C254.766 14.8637 257.818 17.9163 257.818 21.6819C257.818 25.4474 254.766 28.5 251 28.5C247.234 28.5 244.182 25.4474 244.182 21.6819ZM251 17.5909C251.377 17.5909 251.682 17.8962 251.682 18.2727V21.3171L253.424 22.4781C253.737 22.687 253.822 23.1103 253.613 23.4236C253.404 23.737 252.981 23.8217 252.667 23.6128L250.925 22.4517C250.739 22.3271 250.585 22.1582 250.479 21.9603C250.374 21.7624 250.318 21.5415 250.318 21.3171V18.2727C250.318 17.8962 250.623 17.5909 251 17.5909Z" fill="#222227"/>
<path fill-rule="evenodd" clip-rule="evenodd" d="M319.9 16.0001C319.9 15.503 319.497 15.1001 319 15.1001C318.503 15.1001 318.1 15.503 318.1 16.0001V26.0001C318.1 26.4972 318.503 26.9001 319 26.9001C319.497 26.9001 319.9 26.4972 319.9 26.0001V16.0001ZM313.2 21.2999C313.2 20.8028 312.797 20.3999 312.3 20.3999C311.803 20.3999 311.4 20.8028 311.4 21.2999V25.9999C311.4 26.497 311.803 26.8999 312.3 26.8999C312.797 26.8999 313.2 26.497 313.2 25.9999V21.2999ZM309 23.1001C309.497 23.1001 309.9 23.503 309.9 24.0001V26.0001C309.9 26.4972 309.497 26.9001 309 26.9001C308.503 26.9001 308.1 26.4972 308.1 26.0001V24.0001C308.1 23.503 308.503 23.1001 309 23.1001ZM316.6 18.7C316.6 18.203 316.197 17.8 315.7 17.8C315.203 17.8 314.8 18.203 314.8 18.7V26C314.8 26.4971 315.203 26.9 315.7 26.9C316.197 26.9 316.6 26.4971 316.6 26V18.7Z" fill="#222227"/>
<path fill-rule="evenodd" clip-rule="evenodd" d="M289.474 17.2325C290.562 16.7804 291.729 16.5484 292.908 16.55L292.909 16.55C295.388 16.55 297.63 17.5563 299.251 19.1847C299.563 19.4978 300.069 19.4988 300.382 19.1871C300.696 18.8753 300.697 18.3688 300.385 18.0557C298.475 16.1382 295.831 14.9501 292.909 14.95L292.91 14.95L292.909 15.75V14.95L292.909 14.95C291.52 14.9482 290.144 15.2218 288.86 15.7549C287.577 16.2881 286.412 17.0704 285.432 18.0564C285.121 18.3699 285.123 18.8764 285.436 19.1878C285.75 19.4992 286.256 19.4975 286.568 19.184C287.398 18.3479 288.386 17.6846 289.474 17.2325ZM290.572 20.0262C291.31 19.711 292.105 19.549 292.908 19.55H292.91C293.713 19.549 294.507 19.711 295.246 20.0262C295.984 20.3414 296.651 20.8033 297.205 21.3838C297.511 21.7033 298.017 21.7149 298.337 21.4097C298.656 21.1045 298.668 20.5981 298.362 20.2786C297.658 19.5415 296.812 18.955 295.874 18.5547C294.937 18.1546 293.928 17.9488 292.909 17.95L292.91 17.95L292.909 18.75L292.908 17.95L292.909 17.95C291.89 17.9488 290.881 18.1546 289.944 18.5547C289.006 18.955 288.16 19.5415 287.455 20.2786C287.15 20.5981 287.162 21.1045 287.481 21.4097C287.801 21.7149 288.307 21.7033 288.612 21.3838C289.167 20.8033 289.834 20.3414 290.572 20.0262ZM291.691 22.8122C292.073 22.6389 292.488 22.5495 292.908 22.55L292.909 22.55C293.793 22.55 294.586 22.9383 295.128 23.5556C295.419 23.8877 295.924 23.9207 296.257 23.6293C296.589 23.3379 296.622 22.8325 296.33 22.5003C295.498 21.5518 294.273 20.9501 292.909 20.95L292.91 20.95L292.909 21.75V20.95H292.909C292.261 20.9493 291.621 21.0874 291.03 21.3549C290.44 21.6225 289.914 22.0133 289.487 22.5013C289.196 22.8338 289.23 23.3392 289.562 23.6301C289.895 23.921 290.4 23.8872 290.691 23.5547C290.968 23.2387 291.308 22.9855 291.691 22.8122ZM294 25.2C294 25.7522 293.552 26.2 293 26.2C292.448 26.2 292 25.7522 292 25.2C292 24.6477 292.448 24.2 293 24.2C293.552 24.2 294 24.6477 294 25.2Z" fill="#222227"/>
<path fill-rule="evenodd" clip-rule="evenodd" d="M271.699 14.0694C271.927 13.958 272.2 13.9821 272.404 14.1315L276.731 17.3027C276.903 17.4288 277.003 17.6277 277 17.8378C276.997 18.048 276.891 18.2441 276.716 18.3656L272.91 21L276.716 23.6344C276.891 23.7559 276.997 23.952 277 24.1622C277.003 24.3723 276.903 24.5712 276.731 24.6973L272.404 27.8685C272.2 28.0179 271.927 28.042 271.699 27.9306C271.471 27.8191 271.327 27.5914 271.327 27.3423V22.0957L268.062 24.3555C267.759 24.5655 267.339 24.4954 267.124 24.199C266.909 23.9025 266.981 23.492 267.284 23.2821L270.581 21L267.284 18.7179C266.981 18.508 266.909 18.0975 267.124 17.801C267.339 17.5046 267.759 17.4345 268.062 17.6445L271.327 19.9043V14.6577C271.327 14.4086 271.471 14.1809 271.699 14.0694ZM272.673 22.4481L275.184 24.1863L272.673 26.0268V22.4481ZM272.673 19.5519V15.9732L275.184 17.8137L272.673 19.5519Z" fill="#222227"/>
<path fill-rule="evenodd" clip-rule="evenodd" d="M328.159 16.409C328.581 15.9871 329.153 15.75 329.75 15.75H338.75C339.347 15.75 339.919 15.9871 340.341 16.409C340.763 16.831 341 17.4033 341 18V18.1287C341.313 18.2395 341.601 18.4195 341.841 18.659C342.263 19.081 342.5 19.6533 342.5 20.25V21.75C342.5 22.3467 342.263 22.919 341.841 23.341C341.601 23.5805 341.313 23.7605 341 23.8713V24C341 24.5967 340.763 25.169 340.341 25.591C339.919 26.0129 339.347 26.25 338.75 26.25H329.75C329.153 26.25 328.581 26.0129 328.159 25.591C327.737 25.169 327.5 24.5967 327.5 24V18C327.5 17.4033 327.737 16.831 328.159 16.409ZM329.75 17.25C329.551 17.25 329.36 17.329 329.22 17.4697C329.079 17.6103 329 17.8011 329 18V24C329 24.1989 329.079 24.3897 329.22 24.5303C329.36 24.671 329.551 24.75 329.75 24.75H338.75C338.949 24.75 339.14 24.671 339.28 24.5303C339.421 24.3897 339.5 24.1989 339.5 24V23.25C339.5 22.8358 339.836 22.5 340.25 22.5C340.449 22.5 340.64 22.421 340.78 22.2803C340.921 22.1397 341 21.9489 341 21.75V20.25C341 20.0511 340.921 19.8603 340.78 19.7197C340.64 19.579 340.449 19.5 340.25 19.5C339.836 19.5 339.5 19.1642 339.5 18.75V18C339.5 17.8011 339.421 17.6103 339.28 17.4697C339.14 17.329 338.949 17.25 338.75 17.25H329.75ZM331.25 18.75C331.664 18.75 332 19.0858 332 19.5V22.5C332 22.9142 331.664 23.25 331.25 23.25C330.836 23.25 330.5 22.9142 330.5 22.5V19.5C330.5 19.0858 330.836 18.75 331.25 18.75ZM334.25 18.75C334.664 18.75 335 19.0858 335 19.5V22.5C335 22.9142 334.664 23.25 334.25 23.25C333.836 23.25 333.5 22.9142 333.5 22.5V19.5C333.5 19.0858 333.836 18.75 334.25 18.75ZM337.25 18.75C337.664 18.75 338 19.0858 338 19.5V22.5C338 22.9142 337.664 23.25 337.25 23.25C336.836 23.25 336.5 22.9142 336.5 22.5V19.5C336.5 19.0858 336.836 18.75 337.25 18.75Z" fill="#222227"/>
</svg>
